<?xml version="1.0" encoding="UTF-8" standalone="no"?>
<svg width="64px" height="20px" viewBox="0 0 64 20" version="1.1" xmlns="http://www.w3.org/2000/svg" xmlns:xlink="http://www.w3.org/1999/xlink" xmlns:sketch="http://www.bohemiancoding.com/sketch/ns">
    <!-- Generator: Sketch 3.3.1 (12002) - http://www.bohemiancoding.com/sketch -->
    <title>Fill 6976</title>
    <desc>Created with Sketch.</desc>
    <defs></defs>
    <g id="Page-1" stroke="none" stroke-width="1" fill="none" fill-rule="evenodd" sketch:type="MSPage">
        <path d="M62.215,7.778 L63.77,7.778 L63.77,9.333 L62.215,9.333 L62.215,7.778 Z M62.215,5.185 L63.77,5.185 L63.77,6.741 L62.215,6.741 L62.215,5.185 Z M62.215,2.595 L63.77,2.595 L63.77,4.148 L62.215,4.148 L62.215,2.595 Z M59.623,7.778 L61.178,7.778 L61.178,9.333 L59.623,9.333 L59.623,7.778 Z M59.623,5.185 L61.178,5.185 L61.178,6.741 L59.623,6.741 L59.623,5.185 Z M59.623,2.595 L61.178,2.595 L61.178,4.148 L59.623,4.148 L59.623,2.595 Z M59.623,0 L61.178,0 L61.178,1.558 L59.623,1.558 L59.623,0 Z M57.029,18.147 L58.586,18.147 L58.586,19.702 L57.029,19.702 L57.029,18.147 Z M57.029,5.185 L58.586,5.185 L58.586,6.741 L57.029,6.741 L57.029,5.185 Z M57.029,2.595 L58.586,2.595 L58.586,4.148 L57.029,4.148 L57.029,2.595 Z M57.029,0 L58.586,0 L58.586,1.558 L57.029,1.558 L57.029,0 Z M54.438,18.147 L55.992,18.147 L55.992,19.702 L54.438,19.702 L54.438,18.147 Z M54.438,15.556 L55.992,15.556 L55.992,17.11 L54.438,17.11 L54.438,15.556 Z M54.438,5.185 L55.992,5.185 L55.992,6.741 L54.438,6.741 L54.438,5.185 Z M54.438,2.595 L55.992,2.595 L55.992,4.148 L54.438,4.148 L54.438,2.595 Z M54.438,0 L55.992,0 L55.992,1.558 L54.438,1.558 L54.438,0 Z M51.846,15.556 L53.401,15.556 L53.401,17.11 L51.846,17.11 L51.846,15.556 Z M51.846,12.962 L53.401,12.962 L53.401,14.518 L51.846,14.518 L51.846,12.962 Z M51.846,10.37 L53.401,10.37 L53.401,11.927 L51.846,11.927 L51.846,10.37 Z M51.846,7.778 L53.401,7.778 L53.401,9.333 L51.846,9.333 L51.846,7.778 Z M51.846,5.185 L53.401,5.185 L53.401,6.741 L51.846,6.741 L51.846,5.185 Z M51.846,2.595 L53.401,2.595 L53.401,4.148 L51.846,4.148 L51.846,2.595 Z M51.846,0 L53.401,0 L53.401,1.558 L51.846,1.558 L51.846,0 Z M49.254,12.962 L50.809,12.962 L50.809,14.518 L49.254,14.518 L49.254,12.962 Z M49.254,10.37 L50.809,10.37 L50.809,11.927 L49.254,11.927 L49.254,10.37 Z M49.254,7.778 L50.809,7.778 L50.809,9.333 L49.254,9.333 L49.254,7.778 Z M49.254,5.185 L50.809,5.185 L50.809,6.741 L49.254,6.741 L49.254,5.185 Z M49.254,2.595 L50.809,2.595 L50.809,4.148 L49.254,4.148 L49.254,2.595 Z M49.254,0 L50.809,0 L50.809,1.558 L49.254,1.558 L49.254,0 Z M46.66,10.37 L48.217,10.37 L48.217,11.927 L46.66,11.927 L46.66,10.37 Z M46.66,7.778 L48.217,7.778 L48.217,9.333 L46.66,9.333 L46.66,7.778 Z M46.66,5.185 L48.217,5.185 L48.217,6.741 L46.66,6.741 L46.66,5.185 Z M46.66,2.595 L48.217,2.595 L48.217,4.148 L46.66,4.148 L46.66,2.595 Z M46.66,0 L48.217,0 L48.217,1.558 L46.66,1.558 L46.66,0 Z M44.068,10.37 L45.623,10.37 L45.623,11.927 L44.068,11.927 L44.068,10.37 Z M44.068,7.778 L45.623,7.778 L45.623,9.333 L44.068,9.333 L44.068,7.778 Z M44.068,5.185 L45.623,5.185 L45.623,6.741 L44.068,6.741 L44.068,5.185 Z M44.068,2.595 L45.623,2.595 L45.623,4.148 L44.068,4.148 L44.068,2.595 Z M44.068,0 L45.623,0 L45.623,1.558 L44.068,1.558 L44.068,0 Z M41.477,18.147 L43.031,18.147 L43.031,19.702 L41.477,19.702 L41.477,18.147 Z M41.477,12.962 L43.031,12.962 L43.031,14.518 L41.477,14.518 L41.477,12.962 Z M41.477,10.37 L43.031,10.37 L43.031,11.927 L41.477,11.927 L41.477,10.37 Z M41.477,7.778 L43.031,7.778 L43.031,9.333 L41.477,9.333 L41.477,7.778 Z M41.477,5.185 L43.031,5.185 L43.031,6.741 L41.477,6.741 L41.477,5.185 Z M41.477,2.595 L43.031,2.595 L43.031,4.148 L41.477,4.148 L41.477,2.595 Z M38.885,18.147 L40.44,18.147 L40.44,19.702 L38.885,19.702 L38.885,18.147 Z M38.885,15.556 L40.44,15.556 L40.44,17.11 L38.885,17.11 L38.885,15.556 Z M38.885,12.962 L40.44,12.962 L40.44,14.518 L38.885,14.518 L38.885,12.962 Z M38.885,10.37 L40.44,10.37 L40.44,11.927 L38.885,11.927 L38.885,10.37 Z M38.885,7.778 L40.44,7.778 L40.44,9.333 L38.885,9.333 L38.885,7.778 Z M38.885,5.185 L40.44,5.185 L40.44,6.741 L38.885,6.741 L38.885,5.185 Z M38.885,2.595 L40.44,2.595 L40.44,4.148 L38.885,4.148 L38.885,2.595 Z M36.291,15.556 L37.848,15.556 L37.848,17.11 L36.291,17.11 L36.291,15.556 Z M36.291,12.962 L37.848,12.962 L37.848,14.518 L36.291,14.518 L36.291,12.962 Z M36.291,7.778 L37.848,7.778 L37.848,9.333 L36.291,9.333 L36.291,7.778 Z M36.291,5.185 L37.848,5.185 L37.848,6.741 L36.291,6.741 L36.291,5.185 Z M36.291,2.595 L37.848,2.595 L37.848,4.148 L36.291,4.148 L36.291,2.595 Z M33.699,18.147 L35.254,18.147 L35.254,19.702 L33.699,19.702 L33.699,18.147 Z M33.699,7.778 L35.254,7.778 L35.254,9.333 L33.699,9.333 L33.699,7.778 Z M33.699,5.185 L35.254,5.185 L35.254,6.741 L33.699,6.741 L33.699,5.185 Z M33.699,2.595 L35.254,2.595 L35.254,4.148 L33.699,4.148 L33.699,2.595 Z M33.699,0 L35.254,0 L35.254,1.558 L33.699,1.558 L33.699,0 Z M31.108,18.147 L32.662,18.147 L32.662,19.702 L31.108,19.702 L31.108,18.147 Z M31.108,15.556 L32.662,15.556 L32.662,17.11 L31.108,17.11 L31.108,15.556 Z M31.108,7.778 L32.662,7.778 L32.662,9.333 L31.108,9.333 L31.108,7.778 Z M31.108,5.185 L32.662,5.185 L32.662,6.741 L31.108,6.741 L31.108,5.185 Z M31.108,2.595 L32.662,2.595 L32.662,4.148 L31.108,4.148 L31.108,2.595 Z M31.108,0 L32.662,0 L32.662,1.558 L31.108,1.558 L31.108,0 Z M28.514,15.556 L30.07,15.556 L30.07,17.11 L28.514,17.11 L28.514,15.556 Z M28.514,12.962 L30.07,12.962 L30.07,14.518 L28.514,14.518 L28.514,12.962 Z M28.514,10.37 L30.07,10.37 L30.07,11.927 L28.514,11.927 L28.514,10.37 Z M28.514,7.778 L30.07,7.778 L30.07,9.333 L28.514,9.333 L28.514,7.778 Z M28.514,5.185 L30.07,5.185 L30.07,6.741 L28.514,6.741 L28.514,5.185 Z M28.514,2.595 L30.07,2.595 L30.07,4.148 L28.514,4.148 L28.514,2.595 Z M28.514,0 L30.07,0 L30.07,1.558 L28.514,1.558 L28.514,0 Z M25.922,12.962 L27.479,12.962 L27.479,14.518 L25.922,14.518 L25.922,12.962 Z M25.922,10.37 L27.479,10.37 L27.479,11.927 L25.922,11.927 L25.922,10.37 Z M25.922,7.778 L27.479,7.778 L27.479,9.333 L25.922,9.333 L25.922,7.778 Z M25.922,5.185 L27.479,5.185 L27.479,6.741 L25.922,6.741 L25.922,5.185 Z M25.922,2.595 L27.479,2.595 L27.479,4.148 L25.922,4.148 L25.922,2.595 Z M25.922,0 L27.479,0 L27.479,1.558 L25.922,1.558 L25.922,0 Z M23.33,18.147 L24.885,18.147 L24.885,19.702 L23.33,19.702 L23.33,18.147 Z M23.33,10.37 L24.885,10.37 L24.885,11.927 L23.33,11.927 L23.33,10.37 Z M23.33,7.778 L24.885,7.778 L24.885,9.333 L23.33,9.333 L23.33,7.778 Z M23.33,5.185 L24.885,5.185 L24.885,6.741 L23.33,6.741 L23.33,5.185 Z M23.33,2.595 L24.885,2.595 L24.885,4.148 L23.33,4.148 L23.33,2.595 Z M20.738,18.147 L22.293,18.147 L22.293,19.702 L20.738,19.702 L20.738,18.147 Z M20.738,15.556 L22.293,15.556 L22.293,17.11 L20.738,17.11 L20.738,15.556 Z M20.738,12.962 L22.293,12.962 L22.293,14.518 L20.738,14.518 L20.738,12.962 Z M20.738,10.37 L22.293,10.37 L22.293,11.927 L20.738,11.927 L20.738,10.37 Z M20.738,7.778 L22.293,7.778 L22.293,9.333 L20.738,9.333 L20.738,7.778 Z M20.738,5.185 L22.293,5.185 L22.293,6.741 L20.738,6.741 L20.738,5.185 Z M20.738,2.595 L22.293,2.595 L22.293,4.148 L20.738,4.148 L20.738,2.595 Z M18.145,15.556 L19.701,15.556 L19.701,17.11 L18.145,17.11 L18.145,15.556 Z M18.145,12.962 L19.701,12.962 L19.701,14.518 L18.145,14.518 L18.145,12.962 Z M18.145,10.37 L19.701,10.37 L19.701,11.927 L18.145,11.927 L18.145,10.37 Z M18.145,5.185 L19.701,5.185 L19.701,6.741 L18.145,6.741 L18.145,5.185 Z M15.553,7.778 L17.11,7.778 L17.11,9.333 L15.553,9.333 L15.553,7.778 Z M15.553,5.185 L17.11,5.185 L17.11,6.741 L15.553,6.741 L15.553,5.185 Z M12.961,10.37 L14.516,10.37 L14.516,11.927 L12.961,11.927 L12.961,10.37 Z M12.961,7.778 L14.516,7.778 L14.516,9.333 L12.961,9.333 L12.961,7.778 Z M10.369,12.962 L11.924,12.962 L11.924,14.518 L10.369,14.518 L10.369,12.962 Z M10.369,10.37 L11.924,10.37 L11.924,11.927 L10.369,11.927 L10.369,10.37 Z M7.776,12.962 L9.332,12.962 L9.332,14.518 L7.776,14.518 L7.776,12.962 Z M5.184,12.962 L6.74,12.962 L6.74,14.518 L5.184,14.518 L5.184,12.962 Z M2.592,12.962 L4.147,12.962 L4.147,14.518 L2.592,14.518 L2.592,12.962 Z M2.592,10.37 L4.147,10.37 L4.147,11.927 L2.592,11.927 L2.592,10.37 Z M0,10.37 L1.555,10.37 L1.555,11.927 L0,11.927 L0,10.37 Z" id="Fill-6976" fill="#FFFFFF" sketch:type="MSShapeGroup"></path>
    </g>
</svg>